HIERARCHY
ROOT Hips
{
	OFFSET 0.00000 0.00000 0.00000
	CHANNELS 6 Xposition Yposition Zposition Zrotation Yrotation Xrotation 
	JOINT LHipJoint
	{
		OFFSET 0 0 0
		CHANNELS 3 Zrotation Yrotation Xrotation
		JOINT LeftHip
		{
			OFFSET 2.36090 -1.39315 1.24752
			CHANNELS 3 Zrotation Yrotation Xrotation
			JOINT LeftKnee
			{
				OFFSET 2.06810 -5.68207 0.00000
				CHANNELS 3 Zrotation Yrotation Xrotation
				JOINT LeftAnkle
				{
					OFFSET 2.46631 -6.77613 0.00000
					CHANNELS 3 Zrotation Yrotation Xrotation
					JOINT LeftToe
					{
						OFFSET 0.26031 -0.71520 1.99545
						CHANNELS 3 Zrotation Yrotation Xrotation
						End Site
						{
							OFFSET 0.00000 -0.00000 1.05957
						}
					}
				}
			}
		}
	}
	JOINT RHipJoint
	{
		OFFSET 0 0 0
		CHANNELS 3 Zrotation Yrotation Xrotation
		JOINT RightHip
		{
			OFFSET -2.25243 -1.39315 1.24752
			CHANNELS 3 Zrotation Yrotation Xrotation
			JOINT RightKnee
			{
				OFFSET -2.17343 -5.97145 0.00000
				CHANNELS 3 Zrotation Yrotation Xrotation
				JOINT RightAnkle
				{
					OFFSET -2.52372 -6.93386 0.00000
					CHANNELS 3 Zrotation Yrotation Xrotation
					JOINT RightToe
					{
						OFFSET -0.22538 -0.61923 2.11447
						CHANNELS 3 Zrotation Yrotation Xrotation
						End Site
						{
							OFFSET -0.00000 -0.00000 1.10506
						}
					}
				}
			}
		}
	}
	JOINT lowerback
	{
		OFFSET 0 0 0
		CHANNELS 3 Zrotation Yrotation Xrotation
		JOINT Chest
		{
			OFFSET 0.01594 2.13103 0.08007
			CHANNELS 3 Zrotation Yrotation Xrotation
			JOINT Chest2
			{
				OFFSET 0.01393 2.09723 0.18338
				CHANNELS 3 Zrotation Yrotation Xrotation
				JOINT lowerneck
				{
					OFFSET 0 0 0
					CHANNELS 3 Zrotation Yrotation Xrotation
					JOINT Neck
					{
						OFFSET 0.05351 1.38915 0.32494
						CHANNELS 3 Zrotation Yrotation Xrotation
						JOINT Head
						{
							OFFSET 0.00711 1.45992 -0.21666
							CHANNELS 3 Zrotation Yrotation Xrotation
							End Site
							{
								OFFSET -0.00433 1.47702 -0.11056
							}
						}
					}
				}
				JOINT LeftCollar
				{
					OFFSET 0 0 0
					CHANNELS 3 Zrotation Yrotation Xrotation
					JOINT LeftShoulder
					{
						OFFSET 2.87198 0.92249 0.11132
CHANNELS 3 Zrotation Xrotation Yrotation
						JOINT LeftElbow
						{
OFFSET 0 -5.527310 0.000000
CHANNELS 3 Zrotation Xrotation Yrotation
							JOINT LeftWrist
							{
OFFSET 0 -3.110590 0.000000
CHANNELS 3 Zrotation Xrotation Yrotation
								JOINT lhand
								{
									OFFSET 0 0 0
CHANNELS 3 Zrotation Xrotation Yrotation
									JOINT LFingers
									{
OFFSET 0 -0.419630 0.000000
CHANNELS 3 Zrotation Xrotation Yrotation
										End Site
										{
OFFSET 0 -0.338310 0.000000
										}
									}
								}
								JOINT LThumb
								{
OFFSET 0 0.000000 0.000000
CHANNELS 3 Zrotation Xrotation Yrotation
									End Site
									{
OFFSET 0 -0.343480 0.343480
									}
								}
							}
						}
					}
				}
				JOINT RightCollar
				{
					OFFSET 0 0 0
					CHANNELS 3 Zrotation Yrotation Xrotation
					JOINT RightShoulder
					{
						OFFSET -2.94710 0.68072 0.32187
CHANNELS 3 Zrotation Xrotation Yrotation
						JOINT RightElbow
						{
OFFSET 0 -5.253960 -0.000000
CHANNELS 3 Zrotation Xrotation Yrotation
							JOINT RightWrist
							{
OFFSET 0 -3.105670 0.000000
CHANNELS 3 Zrotation Xrotation Yrotation
								JOINT rhand
								{
									OFFSET 0 0 0
CHANNELS 3 Zrotation Xrotation Yrotation
									JOINT RFingers
									{
OFFSET 0 -0.498680 0.000000
CHANNELS 3 Zrotation Xrotation Yrotation
										End Site
										{
OFFSET 0 -0.402040 0.000000
										}
									}
								}
								JOINT RThumb
								{
OFFSET 0 0.000000 0.000000
CHANNELS 3 Zrotation Xrotation Yrotation
									End Site
									{
OFFSET 0 -0.408180 0.408180
									}
								}
							}
						}
					}
				}
			}
		}
	}
}
MOTION
Frames: 4
Frame Time: 0.008333333333333333
3.748698 14.341830 8.219497 -0.733714 -9.429025 34.742703 0.000000 0.000000 0.000000 -4.231557 -12.614123 -75.675947 8.185509 16.254034 53.228112 0.286070 2.786287 -11.521993 0.234357 -3.115380 -8.600189 0.000000 0.000000 0.000000 -4.495642 20.760576 -80.070871 -10.471078 -17.666367 61.051663 -0.544094 -5.706539 -17.182409 -0.292081 3.475394 -9.605325 -3.862956 -0.796332 4.667355 1.004878 -1.285172 -2.494070 3.329285 -0.487071 -5.103892 -5.621743 -9.100112 -36.354410 13.065021 -11.584582 4.718013 3.496216 -4.233294 8.120444 0.000000 0.000000 0.000000 9.134900 9.041105 -50.026898 9.612302 -16.130951 1.365250 36.029538 -17.168634 2.158092 0.000000 0.000000 0.000000 -7.125000 0.000000 0.000000 7.237046 27.291607 3.136535 0.000000 0.000000 0.000000 -20.666772 3.348651 67.787713 -11.236057 -18.649166 -1.850713 -34.329103 16.701851 7.327467 0.000000 0.000000 0.000000 7.125000 0.000000 0.000000 -6.515556 38.753193 -1.007918
3.748793 14.381297 8.264305 -0.756145 -9.432541 34.796717 0.000000 0.000000 0.000000 -4.340786 -12.639893 -75.162558 8.033484 16.143813 52.683193 0.282280 2.906716 -11.537285 0.244457 -3.181348 -8.783981 0.000000 0.000000 0.000000 -4.556698 21.019721 -79.552337 -10.323275 -17.587599 60.563335 -0.557046 -5.732049 -17.351847 -0.294618 3.490327 -9.646913 -3.890953 -0.822007 4.214448 1.055384 -1.304663 -2.678911 3.391714 -0.493988 -5.036206 -5.653365 -9.100286 -36.087340 13.071609 -11.613011 4.966807 3.497781 -4.245317 8.178902 0.000000 0.000000 0.000000 9.008083 8.903304 -49.246191 9.479039 -15.920484 1.328485 35.570997 -15.807185 1.854647 0.000000 0.000000 0.000000 -7.125000 0.000000 0.000000 6.917221 27.678895 2.932423 0.000000 0.000000 0.000000 -20.467847 3.242904 67.154623 -11.114970 -18.464247 -1.812219 -32.887124 17.175529 7.704885 0.000000 0.000000 0.000000 7.125000 0.000000 0.000000 -5.265859 39.080631 -0.771226
3.749065 14.420674 8.309019 -0.781380 -9.438364 34.855101 0.000000 0.000000 0.000000 -4.439675 -12.672357 -74.648347 7.880645 16.030607 52.131321 0.277673 3.042684 -11.550146 0.254296 -3.244487 -8.960086 0.000000 0.000000 0.000000 -4.623815 21.289435 -79.035274 -10.173571 -17.506203 60.066667 -0.569569 -5.754036 -17.511343 -0.296213 3.499702 -9.673215 -3.912164 -0.849511 3.745271 1.105641 -1.325441 -2.859590 3.449553 -0.502183 -4.954809 -5.683695 -9.098445 -35.816889 13.073955 -11.637797 5.205266 3.498518 -4.256709 8.232303 0.000000 0.000000 0.000000 8.908720 8.786517 -48.531745 9.401033 -15.797269 1.307166 35.255526 -14.664690 1.545238 0.000000 0.000000 0.000000 -7.125000 0.000000 0.000000 6.704202 28.065366 2.779389 0.000000 0.000000 0.000000 -20.250078 3.120998 66.466941 -11.001978 -18.291205 -1.776547 -31.604718 17.435719 8.034027 0.000000 0.000000 0.000000 7.125000 0.000000 0.000000 -4.144825 39.357201 -0.578420
3.749184 14.460294 8.353727 -0.808003 -9.446042 34.914575 0.000000 0.000000 0.000000 -4.530070 -12.711027 -74.127374 7.725902 15.913656 51.568873 0.272165 3.193825 -11.560649 0.263697 -3.303638 -9.125376 0.000000 0.000000 0.000000 -4.695582 21.570842 -78.513807 -10.021126 -17.421594 59.558898 -0.579798 -5.787897 -17.653248 -0.297822 3.509080 -9.699552 -3.931679 -0.879330 3.262294 1.157383 -1.348408 -3.033087 3.507536 -0.511898 -4.857799 -5.708812 -9.091425 -35.555615 13.064163 -11.654684 5.436556 3.496007 -4.265711 8.281874 0.000000 0.000000 0.000000 8.829387 8.681568 -47.856982 9.388905 -15.778149 1.303864 34.967198 -13.725936 1.113593 0.000000 0.000000 0.000000 -7.125000 0.000000 0.000000 6.520102 28.596570 2.619749 0.000000 0.000000 0.000000 -20.025309 2.983619 65.729294 -10.894189 -18.125906 -1.742926 -30.481543 17.606449 8.313694 0.000000 0.000000 0.000000 7.125000 0.000000 0.000000 -3.156231 39.584392 -0.422548
